<svg id="visual" viewBox="0 0 200 112" width="200" height="112" xmlns="http://www.w3.org/2000/svg" xmlns:xlink="http://www.w3.org/1999/xlink" version="1.1"><path d="M0 52L4.8 56C9.7 60 19.3 68 28.8 74.5C38.3 81 47.7 86 57.2 81.2C66.7 76.3 76.3 61.7 85.8 58.8C95.3 56 104.7 65 114.2 65.5C123.7 66 133.3 58 142.8 48.5C152.3 39 161.7 28 171.2 23.3C180.7 18.7 190.3 20.3 195.2 21.2L200 22L200 0L195.2 0C190.3 0 180.7 0 171.2 0C161.7 0 152.3 0 142.8 0C133.3 0 123.7 0 114.2 0C104.7 0 95.3 0 85.8 0C76.3 0 66.7 0 57.2 0C47.7 0 38.3 0 28.8 0C19.3 0 9.7 0 4.8 0L0 0Z" fill="#3e6092" stroke-linecap="round" stroke-linejoin="miter"></path></svg>