<svg id="visual" viewBox="0 0 1920 1080" width="1920" height="1080" xmlns="http://www.w3.org/2000/svg" xmlns:xlink="http://www.w3.org/1999/xlink" version="1.1"><path d="M0 521L64 524.7C128 528.3 256 535.7 384 497.8C512 460 640 377 768 344C896 311 1024 328 1152 353.8C1280 379.7 1408 414.3 1536 383C1664 351.7 1792 254.3 1856 205.7L1920 157L1920 0L1856 0C1792 0 1664 0 1536 0C1408 0 1280 0 1152 0C1024 0 896 0 768 0C640 0 512 0 384 0C256 0 128 0 64 0L0 0Z" fill="#0066FF" stroke-linecap="round" stroke-linejoin="miter"></path></svg>